<svg width="20" height="20" viewBox="0 0 20 20" fill="none" xmlns="http://www.w3.org/2000/svg">
<path d="M16.6666 8.33333C16.6666 4.65144 13.6819 1.66667 9.99998 1.66667C9.1159 1.66667 8.27201 1.83876 7.49998 2.15127M12.0833 18.0014C14.7449 17.1265 16.6666 14.621 16.6666 11.6667M7.91665 18.0014C5.25504 17.1265 3.33331 14.621 3.33331 11.6667V8.33333C3.33331 6.75676 3.88058 5.308 4.7955 4.16667M9.99998 8.33333V11.6667M6.66665 11.6667V8.33333C6.66665 6.49239 8.15903 5 9.99998 5M12.8874 6.66667C13.171 7.15696 13.3333 7.72619 13.3333 8.33333V11.6667C13.3333 13.5076 11.8409 15 9.99998 15C9.39283 15 8.8236 14.8377 8.33331 14.5541" stroke="#9097A0" stroke-width="1.5" stroke-linecap="round" stroke-linejoin="round"/>
</svg>
