<svg width="20" height="20" viewBox="0 0 20 20" fill="none" xmlns="http://www.w3.org/2000/svg">
<g id="battery-3">
<path id="Vector" d="M5.83335 8.33333L5.83335 11.6667M9.16669 8.33333L9.16669 11.6667M12.5 8.33333L12.5 11.6667M16.6667 7.49999L17.2026 7.71436C18.1372 8.08821 18.75 8.9934 18.75 10C18.75 11.0066 18.1372 11.9118 17.2025 12.2857L16.6667 12.5M7.50002 15.8333L10.8334 15.8333C12.5408 15.8333 13.3945 15.8333 14.0757 15.577C15.1537 15.1712 16.0046 14.3204 16.4103 13.2423C16.6667 12.5612 16.6667 11.7074 16.6667 10V10C16.6667 8.29256 16.6667 7.43884 16.4103 6.75766C16.0046 5.6796 15.1537 4.82879 14.0757 4.42304C13.3945 4.16666 12.5408 4.16666 10.8334 4.16666L7.50002 4.16666C5.79258 4.16666 4.93886 4.16666 4.25769 4.42304C3.17963 4.82879 2.32882 5.6796 1.92306 6.75766C1.66669 7.43884 1.66669 8.29256 1.66669 10V10C1.66669 11.7074 1.66669 12.5612 1.92306 13.2423C2.32882 14.3204 3.17963 15.1712 4.25769 15.577C4.93886 15.8333 5.79258 15.8333 7.50002 15.8333Z" stroke="#9097A0" stroke-width="1.5" stroke-linecap="round" stroke-linejoin="round"/>
</g>
</svg>
