<svg width="20" height="20" viewBox="0 0 20 20" fill="none" xmlns="http://www.w3.org/2000/svg">
<g id="cutlery-4">
<path id="Vector" d="M12.4999 18.3333V11.6667M12.4999 11.6667V1.66667L13.4094 1.89403C14.276 2.1107 14.7094 2.21903 15.032 2.46062C15.3167 2.67378 15.5394 2.959 15.6771 3.28687C15.8333 3.65848 15.8333 4.10515 15.8333 4.99849V8.02229C15.8333 8.74021 15.8333 9.09917 15.7239 9.41608C15.6273 9.69633 15.4695 9.95158 15.2621 10.1634C15.0275 10.4029 14.7065 10.5634 14.0643 10.8845L12.4999 11.6667ZM5.83325 1.66667V9.16667M5.83325 9.16667V18.3333M5.83325 9.16667L4.75821 8.44997C4.23723 8.10265 3.97674 7.92899 3.78816 7.69955C3.62121 7.49643 3.49596 7.26238 3.41955 7.0108C3.33325 6.72663 3.33325 6.41356 3.33325 5.78741V1.66667M5.83325 9.16667L6.90829 8.44997C7.42927 8.10265 7.68977 7.92899 7.87834 7.69955C8.04529 7.49643 8.17055 7.26238 8.24695 7.0108C8.33325 6.72663 8.33325 6.41356 8.33325 5.78741V1.66667" stroke="#9097A0" stroke-width="1.5" stroke-linecap="round" stroke-linejoin="round"/>
</g>
</svg>
