<svg width="20" height="20" viewBox="0 0 20 20" fill="none" xmlns="http://www.w3.org/2000/svg">
<g id="216481_tree_icon 1">
<g id="Layer_1">
<path id="Vector" d="M17.3175 14.4792L15.0675 11.6667H15.8333C16.1442 11.6667 16.4292 11.4942 16.5725 11.2183C16.7158 10.9425 16.6942 10.6108 16.5158 10.3558L10.6825 2.0225C10.4183 1.64583 9.89916 1.55417 9.52166 1.8175C9.44582 1.87 9.38999 1.93917 9.33749 2.01C9.31666 2.0225 3.48332 10.3558 3.48332 10.3558C3.30499 10.6108 3.28332 10.9425 3.42666 11.2183C3.57082 11.4942 3.85582 11.6667 4.16666 11.6667H4.93249L2.68249 14.4792C2.48249 14.73 2.44332 15.0725 2.58166 15.3617C2.72082 15.6492 3.01332 15.8333 3.33332 15.8333H9.16666V18.3333C9.16666 18.7942 9.53999 19.1667 9.99999 19.1667C10.46 19.1667 10.8333 18.7942 10.8333 18.3333V15.8333H16.6667C16.9867 15.8333 17.2792 15.6492 17.4175 15.3617C17.5567 15.0725 17.5175 14.73 17.3175 14.4792ZM10.8333 14.1667V10C10.8333 9.53917 10.46 9.16667 9.99999 9.16667C9.53999 9.16667 9.16666 9.53917 9.16666 10V14.1667H5.06749L7.31749 11.3542C7.51749 11.1033 7.55666 10.7608 7.41832 10.4717C7.27916 10.1842 6.98666 10 6.66666 10H5.76666L9.99999 3.95333L14.2333 10H13.3333C13.0133 10 12.7208 10.1842 12.5825 10.4717C12.4433 10.7608 12.4825 11.1033 12.6833 11.3542L14.9333 14.1667H10.8333Z" fill="#9097A0"/>
</g>
</g>
</svg>
