<svg width="20" height="20" viewBox="0 0 20 20" fill="none" xmlns="http://www.w3.org/2000/svg">
<g id="8725816_flower_icon 1">
<path id="Vector" d="M16.4 5.73333C15.5508 5.28704 14.5606 5.19131 13.6417 5.46667C13.5969 4.53206 13.1941 3.65053 12.5169 3.00492C11.8396 2.35931 10.9398 1.99915 10.0042 1.99915C9.06848 1.99915 8.1687 2.35931 7.49144 3.00492C6.81418 3.65053 6.4114 4.53206 6.36666 5.46667C5.45023 5.19068 4.4628 5.27719 3.60832 5.70833C2.97907 6.03907 2.46038 6.54675 2.11621 7.16876C1.77204 7.79077 1.61744 8.49991 1.67149 9.20873C1.72554 9.91755 1.98586 10.5951 2.42036 11.1577C2.85486 11.7203 3.44453 12.1435 4.11666 12.375C3.68765 12.9854 3.45507 13.7122 3.44999 14.4583C3.45369 14.6678 3.47319 14.8768 3.50832 15.0833C3.64866 15.9296 4.08524 16.6985 4.74011 17.2526C5.39498 17.8067 6.22548 18.11 7.08332 18.1083C7.26089 18.1205 7.43909 18.1205 7.61666 18.1083C8.56919 17.9583 9.42488 17.4407 9.99999 16.6667C10.5811 17.4282 11.436 17.9333 12.3833 18.075C12.5609 18.0872 12.7391 18.0872 12.9167 18.075C13.5818 18.0742 14.2339 17.8909 14.802 17.545C15.3701 17.1991 15.8324 16.7039 16.1384 16.1133C16.4444 15.5228 16.5825 14.8596 16.5375 14.196C16.4925 13.5324 16.2662 12.8938 15.8833 12.35C16.5587 12.1225 17.1523 11.7014 17.5902 11.1391C18.0281 10.5767 18.2909 9.89806 18.346 9.1875C18.401 8.47693 18.2459 7.76586 17.8999 7.1428C17.5539 6.51973 17.0323 6.01218 16.4 5.68333V5.73333ZM8.61666 4.11667C8.98894 3.76013 9.48451 3.5611 9.99999 3.5611C10.5155 3.5611 11.011 3.76013 11.3833 4.11667C11.6676 4.40132 11.8606 4.76418 11.9377 5.15897C12.0149 5.55376 11.9728 5.96259 11.8167 6.33333L11.6 6.825L11.05 7.30833C10.7118 7.19226 10.3575 7.13039 9.99999 7.125C9.53797 7.12544 9.08108 7.22193 8.65832 7.40833L8.19166 6.33333C8.02993 5.96423 7.98397 5.55475 8.05985 5.15899C8.13573 4.76322 8.32988 4.39977 8.61666 4.11667ZM3.53332 9.81666C3.34729 9.4073 3.30651 8.94671 3.41773 8.51103C3.52895 8.07536 3.78551 7.69067 4.145 7.42057C4.50448 7.15047 4.94538 7.01112 5.3948 7.02556C5.84422 7.04001 6.27525 7.20737 6.61666 7.5L7.02499 7.85833L7.31666 8.525C6.8992 9.08355 6.67142 9.76103 6.66666 10.4583C6.65677 10.5831 6.65677 10.7085 6.66666 10.8333H6.20832L5.50832 10.9C5.10795 10.9422 4.70422 10.8611 4.35123 10.6675C3.99825 10.4739 3.71287 10.177 3.53332 9.81666ZM9.03332 14.8833C8.933 15.3282 8.68244 15.7249 8.32384 16.0066C7.96524 16.2884 7.5205 16.4379 7.06453 16.4301C6.60856 16.4222 6.16922 16.2575 5.8205 15.9637C5.47178 15.6698 5.23498 15.2647 5.14999 14.8167C5.142 14.7001 5.142 14.5832 5.14999 14.4667C5.15301 14.1279 5.24459 13.7959 5.41563 13.5035C5.58667 13.2112 5.83122 12.9686 6.12499 12.8L6.54999 12.5L7.30833 12.4167C7.78629 13.0816 8.49228 13.5473 9.29166 13.725L9.03332 14.8833ZM9.99999 12.125C9.67036 12.125 9.34812 12.0272 9.07404 11.8441C8.79996 11.661 8.58634 11.4007 8.46019 11.0961C8.33405 10.7916 8.30104 10.4565 8.36535 10.1332C8.42966 9.80988 8.58839 9.51291 8.82148 9.27982C9.05457 9.04673 9.35154 8.888 9.67484 8.82369C9.99814 8.75938 10.3333 8.79239 10.6378 8.91853C10.9423 9.04468 11.2026 9.2583 11.3858 9.53238C11.5689 9.80646 11.6667 10.1287 11.6667 10.4583C11.6667 10.9004 11.4911 11.3243 11.1785 11.6368C10.8659 11.9494 10.442 12.125 9.99999 12.125ZM14.85 14.8083C14.764 15.3168 14.4818 15.7712 14.064 16.0735C13.6463 16.3759 13.1265 16.5021 12.6167 16.425C12.2149 16.3684 11.84 16.1904 11.5421 15.9149C11.2443 15.6394 11.0377 15.2795 10.95 14.8833L10.8333 14.3833L11.0083 13.6167C11.7771 13.3663 12.4286 12.845 12.8417 12.15L13.2583 12.4H13.3333L13.8833 12.725C14.2407 12.9291 14.5257 13.2392 14.6989 13.6125C14.8721 13.9858 14.9249 14.4037 14.85 14.8083ZM16.4667 9.80833C16.3028 10.1396 16.0499 10.4187 15.7364 10.6144C15.423 10.8101 15.0612 10.9148 14.6917 10.9167H14.4917L13.9583 10.8333L13.3333 10.4917C13.3322 9.68142 13.0359 8.89935 12.5 8.29166L12.8583 7.98333L13.3833 7.5C13.7257 7.19562 14.1632 7.01972 14.621 7.00244C15.0788 6.98516 15.5284 7.12755 15.8927 7.40525C16.2571 7.68295 16.5136 8.07867 16.6183 8.52467C16.723 8.97066 16.6694 9.43918 16.4667 9.85V9.80833Z" fill="#9097A0"/>
</g>
</svg>
