<svg width="20" height="20" viewBox="0 0 20 20" fill="none" xmlns="http://www.w3.org/2000/svg">
<g id="4632211_blow_dryer_electricals_hair_heater_icon 1">
<g id="Layer 2">
<path id="Vector" d="M17.625 3.33333L7.40836 1.76667C6.66392 1.64115 5.90082 1.68386 5.17503 1.89167C4.17949 2.21757 3.30724 2.83977 2.67503 3.675C2.20698 4.30191 1.89258 5.02991 1.75711 5.80045C1.62164 6.57099 1.66887 7.36257 1.89502 8.11154C2.12117 8.8605 2.51992 9.54594 3.0592 10.1127C3.59848 10.6795 4.26324 11.1119 5.00003 11.375V17.5C5.00003 17.721 5.08783 17.933 5.24411 18.0893C5.40039 18.2455 5.61235 18.3333 5.83336 18.3333H9.16669C9.38771 18.3333 9.59967 18.2455 9.75595 18.0893C9.91223 17.933 10 17.721 10 17.5V15H10.8334V13.3333H10V11.1667L17.625 10C17.8237 9.96987 18.0049 9.86893 18.135 9.71579C18.2652 9.56266 18.3356 9.36764 18.3334 9.16667V4.16667C18.3356 3.9657 18.2652 3.77068 18.135 3.61754C18.0049 3.4644 17.8237 3.36347 17.625 3.33333ZM3.33336 6.66667C3.33275 5.94923 3.56363 5.25074 3.99169 4.675C4.41255 4.11508 4.99387 3.69654 5.65836 3.475C5.92897 3.39569 6.20971 3.35638 6.49169 3.35833H6.6667V9.94167C6.42147 9.95247 6.17578 9.93851 5.93336 9.9C5.8456 9.88876 5.7591 9.86923 5.67503 9.84167C4.9976 9.63058 4.40521 9.20883 3.98405 8.63779C3.56289 8.06675 3.33494 7.37622 3.33336 6.66667ZM8.33336 16.6667H6.6667V11.6667C6.91511 11.6608 7.16287 11.6385 7.40836 11.6L8.33336 11.425V16.6667ZM16.6667 8.45L9.0417 9.625L8.33336 9.73333V3.6L16.6667 4.88333V8.45Z" fill="#9097A0"/>
</g>
</g>
</svg>
