<svg width="17" height="14" viewBox="0 0 17 14" fill="none" xmlns="http://www.w3.org/2000/svg">
<path fill-rule="evenodd" clip-rule="evenodd" d="M9.63633 0.469673C9.92923 0.176778 10.4041 0.176776 10.697 0.469667L16.5303 6.30294C16.671 6.44359 16.75 6.63436 16.75 6.83327C16.75 7.03219 16.671 7.22295 16.5303 7.36361L10.697 13.1969C10.4041 13.4898 9.92923 13.4898 9.63634 13.1969C9.34344 12.904 9.34344 12.4292 9.63634 12.1363L14.1893 7.58328H1C0.585786 7.58328 0.25 7.24749 0.25 6.83328C0.25 6.41906 0.585786 6.08328 1 6.08328H14.1893L9.63634 1.53033C9.34344 1.23744 9.34344 0.762567 9.63633 0.469673Z" fill="white"/>
</svg>
