<svg width="18" height="14" viewBox="0 0 18 14" fill="none" xmlns="http://www.w3.org/2000/svg">
<path fill-rule="evenodd" clip-rule="evenodd" d="M7.86367 0.636421C8.15656 0.929315 8.15656 1.40419 7.86366 1.69708L3.31067 6.25002H16.5C16.9142 6.25002 17.25 6.58581 17.25 7.00002C17.25 7.41424 16.9142 7.75002 16.5 7.75002H3.31066L7.86366 12.303C8.15656 12.5959 8.15656 13.0708 7.86366 13.3637C7.57077 13.6566 7.0959 13.6566 6.803 13.3637L0.96967 7.53035C0.829017 7.3897 0.75 7.19893 0.75 7.00002C0.75 6.80111 0.829019 6.61034 0.969673 6.46969L6.80301 0.636415C7.0959 0.343524 7.57077 0.343526 7.86367 0.636421Z" fill="white"/>
</svg>
