<svg width="19" height="19" viewBox="0 0 19 19" fill="none" xmlns="http://www.w3.org/2000/svg">
<path fill-rule="evenodd" clip-rule="evenodd" d="M9.08333 1.5C4.89517 1.5 1.5 4.89517 1.5 9.08333C1.5 13.2715 4.89517 16.6667 9.08333 16.6667C13.2715 16.6667 16.6667 13.2715 16.6667 9.08333C16.6667 4.89517 13.2715 1.5 9.08333 1.5ZM0 9.08333C0 4.06675 4.06675 0 9.08333 0C14.0999 0 18.1667 4.06675 18.1667 9.08333C18.1667 14.0999 14.0999 18.1667 9.08333 18.1667C4.06675 18.1667 0 14.0999 0 9.08333ZM7.91667 5.75C7.91667 5.10567 8.439 4.58333 9.08333 4.58333C9.72767 4.58333 10.25 5.10567 10.25 5.75C10.25 6.39433 9.72767 6.91667 9.08333 6.91667C8.439 6.91667 7.91667 6.39433 7.91667 5.75ZM9.08333 7.5C9.49755 7.5 9.83333 7.83579 9.83333 8.25V12.4167C9.83333 12.8309 9.49755 13.1667 9.08333 13.1667C8.66912 13.1667 8.33333 12.8309 8.33333 12.4167V8.25C8.33333 7.83579 8.66912 7.5 9.08333 7.5Z" fill="white"/>
</svg>
