<svg width="17" height="17" viewBox="0 0 17 17" fill="none" xmlns="http://www.w3.org/2000/svg">
<path d="M11.2568 0H5.10891C2.28002 0 0 2.28034 0 5.09618V11.2161C0 14.0322 2.28002 16.3477 5.10891 16.3477H11.2568C14.0857 16.3477 16.418 14.0322 16.418 11.2161V5.09618C16.418 2.28034 14.0857 0 11.2568 0ZM14.8711 11.2161C14.8711 13.1845 13.2341 14.8008 11.2568 14.8008H5.10891C3.1314 14.8008 1.51172 13.1845 1.51172 11.2161V5.09618C1.51172 3.12796 3.1314 1.51172 5.10891 1.51172H11.2568C13.2341 1.51172 14.8711 3.12796 14.8711 5.09618V11.2161Z" fill="#E28D33"/>
<path d="M8.18283 4.07623C5.9194 4.07623 4.08428 5.90299 4.08428 8.15629C4.08428 10.4093 5.9194 12.236 8.18283 12.236C10.4463 12.236 12.2813 10.4093 12.2813 8.15629C12.2813 5.90299 10.4463 4.07623 8.18283 4.07623ZM8.18283 10.7061C6.77081 10.7061 5.62134 9.56177 5.62134 8.15629C5.62134 6.74948 6.77081 5.60627 8.18283 5.60627C9.59477 5.60627 10.7443 6.74951 10.7443 8.15629C10.7443 9.56177 9.59477 10.7061 8.18283 10.7061Z" fill="#E28D33"/>
<path d="M12.5887 3.22662C12.2871 3.22662 12.0425 3.47005 12.0425 3.77024C12.0425 4.07048 12.2871 4.31401 12.5887 4.31401C12.8901 4.31401 13.1348 4.07048 13.1348 3.77024C13.1348 3.47005 12.8901 3.22662 12.5887 3.22662Z" fill="#E28D33"/>
</svg>
