<svg width="19" height="19" viewBox="0 0 19 19" fill="none" xmlns="http://www.w3.org/2000/svg">
<path fill-rule="evenodd" clip-rule="evenodd" d="M3.50479 0.249965C3.52752 0.249978 3.55052 0.249992 3.57379 0.249992C3.59593 0.249992 3.61778 0.249981 3.63934 0.249971C4.00099 0.249798 4.28237 0.249663 4.54164 0.299575C5.40889 0.466529 6.14318 1.03985 6.51549 1.84071C6.6268 2.08013 6.69491 2.35314 6.78246 2.70404C6.78767 2.72496 6.79296 2.74616 6.79833 2.76764L6.85245 2.9841C6.85923 3.01121 6.86592 3.03797 6.87253 3.0644C7.06128 3.8189 7.18269 4.30422 7.20305 4.78847C7.23909 5.64562 7.04232 6.49652 6.63363 7.25082C6.40274 7.67697 6.08059 8.05972 5.57976 8.65476C5.56222 8.6756 5.54445 8.69671 5.52646 8.71809L4.25005 10.2351C5.27952 11.8404 6.60449 13.1937 8.18308 14.2535L9.95164 12.9293C9.97526 12.9116 9.99858 12.8941 10.0216 12.8769C10.682 12.3822 11.1072 12.0638 11.5785 11.8499C12.2365 11.5512 12.954 11.4066 13.6764 11.4271C14.1937 11.4418 14.709 11.5707 15.5095 11.7709C15.5374 11.7779 15.5656 11.785 15.5943 11.7921L15.899 11.8683C15.9205 11.8737 15.9417 11.879 15.9626 11.8842C16.3135 11.9718 16.5865 12.0399 16.826 12.1512C17.6268 12.5235 18.2001 13.2578 18.3671 14.125C18.417 14.3842 18.4169 14.6571 18.4167 15.0059C18.4167 15.0262 18.4167 15.0468 18.4167 15.0676C18.4167 15.0922 18.4167 15.1165 18.4167 15.1405C18.417 15.5658 18.4172 15.9014 18.336 16.229C18.2007 16.7752 17.8697 17.2545 17.4712 17.6071C17.0727 17.9597 16.5567 18.2299 15.9981 18.2977C15.6638 18.3383 15.391 18.3047 15.0529 18.2631C15.0379 18.2613 15.0228 18.2594 15.0075 18.2576C12.313 17.9271 9.88948 17.0884 7.81946 15.8039C5.69591 14.4863 3.95558 12.7063 2.68156 10.5479C1.49911 8.5446 0.723689 6.22457 0.409092 3.65893C0.407223 3.64369 0.405363 3.62858 0.40352 3.6136C0.36192 3.27563 0.328347 3.00287 0.368936 2.66855C0.436754 2.10996 0.706936 1.59395 1.05956 1.19545C1.41219 0.796945 1.89147 0.46597 2.43766 0.33067C2.76521 0.249532 3.09215 0.249724 3.50479 0.249965ZM9.581 15.0807C11.2317 15.9362 13.1126 16.5139 15.1901 16.7687C15.5863 16.8173 15.682 16.8251 15.8173 16.8087C16.02 16.7841 16.262 16.6742 16.4772 16.4838C16.6924 16.2933 16.8309 16.0666 16.88 15.8683C16.9116 15.7407 16.9167 15.5996 16.9167 15.0676C16.9167 14.6283 16.9135 14.5089 16.8941 14.4086C16.8182 14.0144 16.5576 13.6806 16.1936 13.5114C16.1014 13.4685 15.9796 13.4346 15.5352 13.3235L15.2305 13.2474C14.3165 13.0189 13.968 12.936 13.6338 12.9265C13.1396 12.9125 12.6487 13.0114 12.1984 13.2158C11.894 13.3539 11.6048 13.5653 10.8507 14.13L9.581 15.0807ZM3.46227 8.84151L4.37871 7.75235C4.95071 7.07254 5.16568 6.81143 5.31477 6.53625C5.5944 6.02015 5.72903 5.43795 5.70437 4.85149C5.69122 4.5388 5.61271 4.20981 5.39724 3.34791L5.34312 3.13144C5.23202 2.68703 5.19818 2.56531 5.15529 2.47305C4.98606 2.10902 4.65229 1.84842 4.25808 1.77253C4.15817 1.7533 4.03188 1.74999 3.57379 1.74999C3.06083 1.74999 2.92647 1.75492 2.79833 1.78666C2.6001 1.83577 2.37334 1.97427 2.18291 2.18947C1.99249 2.40467 1.88261 2.64661 1.858 2.84934C1.84157 2.9847 1.84938 3.08034 1.89794 3.47637C2.14023 5.45229 2.67467 7.25036 3.46227 8.84151Z" fill="white"/>
</svg>
