<svg width="18" height="18" viewBox="0 0 18 18" fill="none" xmlns="http://www.w3.org/2000/svg">
<path d="M17.9948 7.37965C16.2259 7.38335 14.5004 6.90066 13.0621 5.99977V12.2829C13.0616 13.4466 12.6551 14.5824 11.8969 15.5385C11.1387 16.4946 10.0651 17.2254 8.81944 17.6332C7.5738 18.0409 6.21559 18.1062 4.92641 17.8203C3.63723 17.5344 2.47853 16.9109 1.60525 16.0332C0.731963 15.1555 0.185723 14.0655 0.0395647 12.9088C-0.106593 11.7522 0.154297 10.584 0.787352 9.56062C1.42041 8.53721 2.39545 7.70729 3.58211 7.18185C4.76876 6.65641 6.11047 6.46048 7.42782 6.62027V9.78047C6.825 9.61456 6.17767 9.61955 5.57829 9.79475C4.97891 9.96995 4.45812 10.3064 4.0903 10.756C3.72247 11.2056 3.52642 11.7455 3.53015 12.2984C3.53387 12.8513 3.73717 13.3891 4.11102 13.8349C4.48488 14.2807 5.01016 14.6118 5.61186 14.7808C6.21355 14.9498 6.8609 14.9481 7.46144 14.776C8.06199 14.6039 8.58503 14.2701 8.95586 13.8224C9.32669 13.3746 9.52636 12.8358 9.52634 12.2829V0H13.0621C13.0596 0.26126 13.0846 0.522164 13.1368 0.779414C13.2597 1.35368 13.5151 1.89999 13.8875 2.38491C14.26 2.86983 14.7416 3.28317 15.3028 3.59965C16.1013 4.06163 17.0375 4.30787 17.9948 4.3077V7.37965Z" fill="#E28D33"/>
</svg>
