<svg width="18" height="18" viewBox="0 0 18 18" fill="none" xmlns="http://www.w3.org/2000/svg">
<path opacity="0.4" fill-rule="evenodd" clip-rule="evenodd" d="M0.46967 0.46967C0.762563 0.176777 1.23744 0.176777 1.53033 0.46967L4.197 3.13634C4.48989 3.42923 4.48989 3.9041 4.197 4.197C3.9041 4.48989 3.42923 4.48989 3.13634 4.197L0.46967 1.53033C0.176777 1.23744 0.176777 0.762563 0.46967 0.46967ZM17.5303 0.46967C17.8232 0.762563 17.8232 1.23744 17.5303 1.53033L14.8637 4.197C14.5708 4.48989 14.0959 4.48989 13.803 4.197C13.5101 3.9041 13.5101 3.42923 13.803 3.13634L16.4697 0.46967C16.7626 0.176777 17.2374 0.176777 17.5303 0.46967ZM4.197 13.803C4.48989 14.0959 4.48989 14.5708 4.197 14.8637L1.53033 17.5303C1.23744 17.8232 0.762563 17.8232 0.46967 17.5303C0.176777 17.2374 0.176777 16.7626 0.46967 16.4697L3.13634 13.803C3.42923 13.5101 3.9041 13.5101 4.197 13.803ZM13.803 13.803C14.0959 13.5101 14.5708 13.5101 14.8637 13.803L17.5303 16.4697C17.8232 16.7626 17.8232 17.2374 17.5303 17.5303C17.2374 17.8232 16.7626 17.8232 16.4697 17.5303L13.803 14.8637C13.5101 14.5708 13.5101 14.0959 13.803 13.803Z" fill="#131921"/>
<path fill-rule="evenodd" clip-rule="evenodd" d="M3.1363 3.1363C3.42919 2.8434 3.90406 2.8434 4.19696 3.1363L8.99996 7.9393L13.803 3.1363C14.0959 2.8434 14.5707 2.8434 14.8636 3.1363C15.1565 3.42919 15.1565 3.90406 14.8636 4.19696L10.0606 8.99996L14.8636 13.803C15.1565 14.0959 15.1565 14.5707 14.8636 14.8636C14.5707 15.1565 14.0959 15.1565 13.803 14.8636L8.99996 10.0606L4.19696 14.8636C3.90406 15.1565 3.42919 15.1565 3.1363 14.8636C2.8434 14.5707 2.8434 14.0959 3.1363 13.803L7.9393 8.99996L3.1363 4.19696C2.8434 3.90406 2.8434 3.42919 3.1363 3.1363Z" fill="#131921"/>
</svg>
