<svg width="86" height="37" viewBox="0 0 86 37" fill="none" xmlns="http://www.w3.org/2000/svg">
<path d="M84.4223 35.42C84.2952 35.0538 84.1588 34.6869 84.0137 34.3203C84.4525 34.1548 84.7628 33.7987 84.8738 33.1785C84.9222 32.9081 84.9541 32.4598 84.9737 31.9102C84.9436 29.6267 84.8738 26.9381 84.8738 25.5C84.8738 24.1637 85.0692 29.2363 84.9737 31.9102C84.9891 33.0768 84.9941 34.1377 84.9741 34.8721C84.9451 35.9371 84.7957 36.4952 84.4223 35.42Z" fill="#131921"/>
<path d="M0.999999 1C28.1935 2.74211 58.6753 3.1476 78.3525 25.109C80.9397 27.9965 83.1452 31.7423 84.4223 35.42C84.7957 36.4952 84.9451 35.9371 84.9741 34.8721C85.0332 32.7003 84.8738 27.6729 84.8738 25.5C84.8738 23.8891 85.1578 31.5924 84.8738 33.1785C84.2856 36.4637 78.1055 32.3393 76.8627 31.7222" stroke="#131921" stroke-width="2" stroke-linecap="round"/>
</svg>
