<svg width="86" height="37" viewBox="0 0 86 37" fill="none" xmlns="http://www.w3.org/2000/svg">
<path d="M1.57767 35.42C1.70485 35.0538 1.84122 34.6869 1.98627 34.3203C1.54753 34.1548 1.23724 33.7987 1.12621 33.1785C1.07779 32.9081 1.04588 32.4598 1.02627 31.9102C1.05636 29.6267 1.1262 26.9381 1.1262 25.5C1.1262 24.1637 0.930824 29.2363 1.02627 31.9102C1.01089 33.0768 1.00589 34.1377 1.02588 34.8721C1.05486 35.9371 1.20432 36.4952 1.57767 35.42Z" fill="#131921"/>
<path d="M85 1C57.8065 2.74211 27.3247 3.1476 7.64749 25.109C5.06032 27.9965 2.85482 31.7423 1.57768 35.42C1.20432 36.4952 1.05487 35.9371 1.02588 34.8721C0.966765 32.7003 1.1262 27.6729 1.1262 25.5C1.1262 23.8891 0.84225 31.5924 1.12621 33.1785C1.71437 36.4637 7.89446 32.3393 9.1373 31.7222" stroke="#131921" stroke-width="2" stroke-linecap="round"/>
</svg>
