<svg width="32" height="32" viewBox="0 0 32 32" fill="none" xmlns="http://www.w3.org/2000/svg">
<g id="verified">
<path id="Vector" fill-rule="evenodd" clip-rule="evenodd" d="M16.5586 0.730931C16.9731 0.851664 17.3427 1.16844 18.0818 1.80199L20.1371 3.56366L20.1371 3.56368C20.4698 3.84885 20.6362 3.99143 20.8238 4.09299C20.9903 4.18308 21.1687 4.24908 21.3538 4.28902C21.5623 4.33404 21.7814 4.33404 22.2196 4.33404L24.466 4.33404C25.5861 4.33404 26.1461 4.33404 26.5739 4.55203C26.9503 4.74378 27.2562 5.04974 27.448 5.42606C27.666 5.85388 27.666 6.41394 27.666 7.53404V9.78036C27.666 10.2186 27.666 10.4377 27.711 10.6463C27.7509 10.8313 27.8169 11.0097 27.907 11.1762C28.0086 11.3638 28.1512 11.5302 28.4363 11.8629L28.4363 11.8629L30.198 13.9182C30.8316 14.6573 31.1484 15.0269 31.2691 15.4414C31.3755 15.8067 31.3755 16.1947 31.2691 16.56C31.1484 16.9745 30.8316 17.3441 30.198 18.0832L28.4363 20.1385L28.4363 20.1385C28.1512 20.4712 28.0086 20.6376 27.907 20.8253C27.8169 20.9917 27.7509 21.1701 27.711 21.3552C27.666 21.5638 27.666 21.7829 27.666 22.2211V24.4674C27.666 25.5875 27.666 26.1475 27.448 26.5754C27.2562 26.9517 26.9503 27.2576 26.574 27.4494C26.1461 27.6674 25.5861 27.6674 24.466 27.6674H22.2197C21.7815 27.6674 21.5624 27.6674 21.3538 27.7124C21.1687 27.7523 20.9903 27.8183 20.8239 27.9084C20.6362 28.01 20.4698 28.1526 20.1372 28.4377L20.1371 28.4378L18.0818 30.1994C17.3427 30.833 16.9731 31.1498 16.5586 31.2705C16.1933 31.3769 15.8053 31.3769 15.44 31.2705C15.0255 31.1498 14.6559 30.833 13.9168 30.1994L11.8615 28.4378L11.8615 28.4377C11.5288 28.1526 11.3624 28.01 11.1748 27.9084C11.0083 27.8183 10.8299 27.7523 10.6448 27.7124C10.4363 27.6674 10.2172 27.6674 9.77896 27.6674H7.48702C6.36691 27.6674 5.80686 27.6674 5.37903 27.4494C5.00271 27.2576 4.69675 26.9517 4.505 26.5754C4.28702 26.1475 4.28702 25.5875 4.28702 24.4674L4.28701 22.2076C4.28701 21.7731 4.28701 21.5558 4.24271 21.3488C4.2034 21.1652 4.13844 20.9881 4.04972 20.8226C3.94972 20.636 3.80928 20.4703 3.5284 20.1388L3.52839 20.1388L1.77488 18.0695C1.15211 17.3345 0.840725 16.967 0.721917 16.5557C0.61719 16.1931 0.61719 15.8083 0.721917 15.4457C0.840725 15.0344 1.15211 14.6669 1.77488 13.932L3.52839 11.8626C3.80927 11.5311 3.94972 11.3654 4.04972 11.1788C4.13843 11.0133 4.2034 10.8362 4.2427 10.6526C4.28701 10.4456 4.28701 10.2284 4.28701 9.79387L4.28701 7.53405C4.28701 6.41394 4.28701 5.85389 4.505 5.42607C4.69675 5.04974 5.00271 4.74378 5.37903 4.55203C5.80685 4.33405 6.36691 4.33405 7.48701 4.33405L9.77895 4.33405C10.2172 4.33405 10.4363 4.33405 10.6448 4.28902C10.8299 4.24909 11.0083 4.18308 11.1748 4.093C11.3624 3.99143 11.5288 3.84885 11.8615 3.56367L11.8615 3.56367L13.9168 1.802C14.6559 1.16844 15.0255 0.851664 15.44 0.730931C15.8053 0.624521 16.1933 0.62452 16.5586 0.730931ZM21.8639 12.5303C22.1568 12.2374 22.1568 11.7626 21.8639 11.4697C21.571 11.1768 21.0962 11.1768 20.8033 11.4697L14.6669 17.606L12.5306 15.4697C12.2377 15.1768 11.7628 15.1768 11.4699 15.4697C11.1771 15.7626 11.1771 16.2374 11.4699 16.5303L14.1366 19.197C14.2773 19.3377 14.468 19.4167 14.6669 19.4167C14.8659 19.4167 15.0566 19.3377 15.1973 19.197L21.8639 12.5303Z" fill="#E28D33"/>
</g>
</svg>
