<svg width="32" height="32" viewBox="0 0 32 32" fill="none" xmlns="http://www.w3.org/2000/svg">
<g id="truck">
<path id="Vector" fill-rule="evenodd" clip-rule="evenodd" d="M13.6667 6.46663C13.6667 4.78647 13.6667 3.94639 13.9937 3.30465C14.2813 2.74017 14.7402 2.28123 15.3047 1.99361C15.9464 1.66663 16.7865 1.66663 18.4667 1.66663H26.8667C28.5468 1.66663 29.3869 1.66663 30.0286 1.99361C30.5931 2.28123 31.0521 2.74017 31.3397 3.30465C31.6667 3.94639 31.6667 4.78647 31.6667 6.46662V23.9909C31.6667 25.2845 30.6179 26.3333 29.3242 26.3333C29.5098 22.9451 26.7334 20 23.3333 20C20.2194 20 17.6286 22.4703 17.3571 25.4888C17.3271 25.8233 17.312 25.9906 17.2545 26.0878C17.1989 26.1819 17.1378 26.2377 17.0391 26.2847C16.9371 26.3333 16.7905 26.3333 16.4974 26.3333H15.5026C15.2095 26.3333 15.0629 26.3333 14.961 26.2847C14.8622 26.2377 14.8011 26.1819 14.7455 26.0878C14.688 25.9906 14.673 25.8233 14.6429 25.4888C14.3714 22.4703 11.7806 20 8.66667 20C5.38445 20 2.68349 22.7445 2.66706 25.9826C2.6661 26.1731 2.51561 26.3333 2.32514 26.3333C1.2251 26.3333 0.333344 25.4415 0.333344 24.3415V16.8666C0.333344 15.7465 0.333344 15.1865 0.55133 14.7586C0.601483 14.6602 0.65945 14.5666 0.724445 14.4786C0.759447 14.3546 0.800839 14.2324 0.848483 14.1126C0.961357 13.8286 1.11832 13.5671 1.34492 13.1896L1.37426 13.1407L3.29197 9.94451L3.35224 9.844C3.8035 9.09126 4.11544 8.57091 4.55566 8.18382C4.94393 7.84241 5.3986 7.58498 5.89111 7.4277C6.44953 7.24936 7.05622 7.24959 7.93386 7.24993L8.05106 7.24996H13.6667V6.46663ZM13.6667 8.74996H8.05106C7.01047 8.74996 6.65498 8.75839 6.34743 8.8566C6.05192 8.95097 5.77912 9.10543 5.54616 9.31027C5.30371 9.52346 5.11359 9.82396 4.57821 10.7163L2.80607 13.6698C3.0192 13.6666 3.25954 13.6666 3.53334 13.6666H10.4667C11.5868 13.6666 12.1468 13.6666 12.5747 13.4486C12.951 13.2569 13.2569 12.9509 13.4487 12.5746C13.6667 12.1468 13.6667 11.5867 13.6667 10.4666V8.74996ZM4.33334 26C4.33334 23.6067 6.27344 21.6666 8.66667 21.6666C11.0599 21.6666 13 23.6067 13 26C13 28.3932 11.0599 30.3333 8.66667 30.3333C6.27344 30.3333 4.33334 28.3932 4.33334 26ZM19 26C19 23.6067 20.9401 21.6666 23.3333 21.6666C25.7266 21.6666 27.6667 23.6067 27.6667 26C27.6667 28.3932 25.7266 30.3333 23.3333 30.3333C20.9401 30.3333 19 28.3932 19 26Z" fill="#E28D33"/>
</g>
</svg>
