<svg width="32" height="32" viewBox="0 0 32 32" fill="none" xmlns="http://www.w3.org/2000/svg">
<g id="file-heart">
<path id="Vector" fill-rule="evenodd" clip-rule="evenodd" d="M17.9167 1.66883C17.6772 1.66663 17.4082 1.66663 17.1005 1.66663H12.3333C9.53307 1.66663 8.13294 1.66663 7.06338 2.21159C6.12257 2.69096 5.35767 3.45586 4.8783 4.39667C4.33333 5.46623 4.33333 6.86636 4.33333 9.66662V22.3333C4.33333 25.1336 4.33333 26.5337 4.8783 27.6032C5.35767 28.5441 6.12257 29.309 7.06338 29.7883C8.13294 30.3333 9.53307 30.3333 12.3333 30.3333H19.6667C22.4669 30.3333 23.8671 30.3333 24.9366 29.7883C25.8774 29.309 26.6423 28.5441 27.1217 27.6032C27.6667 26.5337 27.6667 25.1336 27.6667 22.3333V12.2328C27.6667 11.9251 27.6667 11.6561 27.6645 11.4166H21.8667H21.8362H21.8362C21.302 11.4167 20.8562 11.4167 20.492 11.3869C20.1121 11.3559 19.7555 11.2888 19.4182 11.1169C18.9007 10.8533 18.48 10.4326 18.2164 9.91512C18.0446 9.57785 17.9774 9.2212 17.9464 8.84131C17.9166 8.47709 17.9167 8.03125 17.9167 7.49711V7.49707V7.46664V1.66883ZM27.5497 9.91664C27.543 9.88524 27.536 9.85402 27.5285 9.82292C27.406 9.31274 27.204 8.82502 26.9299 8.37765C26.6207 7.87307 26.1883 7.4407 25.3235 6.57595L25.3235 6.57594L22.7574 4.00977C21.8926 3.14501 21.4602 2.71263 20.9556 2.40343C20.5083 2.12928 20.0206 1.92726 19.5104 1.80478C19.4793 1.79731 19.4481 1.79025 19.4167 1.78357V7.46664C19.4167 8.03907 19.4172 8.42328 19.4414 8.71916C19.4649 9.00629 19.5068 9.14357 19.5529 9.23413C19.6727 9.46933 19.864 9.66056 20.0992 9.7804C20.1897 9.82654 20.327 9.86843 20.6141 9.89188C20.91 9.91606 21.2942 9.91664 21.8667 9.91664H27.5497ZM12.5771 16.8125C13.0718 16.1941 13.9682 16.0803 14.6018 16.5555L15.55 17.2666C15.8167 17.4666 16.1833 17.4666 16.45 17.2666L17.3982 16.5555C18.0318 16.0803 18.9282 16.1941 19.4229 16.8125C19.9131 17.4253 19.834 18.3153 19.2435 18.832L16 21.6701L12.7565 18.832C12.166 18.3153 12.0869 17.4253 12.5771 16.8125ZM15.5018 15.3555C14.2201 14.3942 12.4066 14.6244 11.4058 15.8755C10.4141 17.115 10.5741 18.9156 11.7687 19.9609L15.5061 23.2311C15.7889 23.4785 16.2111 23.4785 16.4939 23.2311L20.2313 19.9609C21.4259 18.9156 21.5859 17.115 20.5942 15.8755C19.5934 14.6244 17.7799 14.3942 16.4982 15.3555L16 15.7291L15.5018 15.3555Z" fill="#E28D33"/>
</g>
</svg>
